<?xml version="1.0" encoding="utf-8"?>
<!-- Generator: Adobe Illustrator 22.0.1, SVG Export Plug-In . SVG Version: 6.00 Build 0)  -->
<svg version="1.1" id="Layer_1" xmlns="http://www.w3.org/2000/svg" xmlns:xlink="http://www.w3.org/1999/xlink" x="0px" y="0px"
	 viewBox="0 0 413.8 127.9" style="enable-background:new 0 0 413.8 127.9;" xml:space="preserve">
<style type="text/css">
	.st0{fill:#BCAC88;}
	.st1{fill:#4650A2;}
	.st2{fill:#522D88;}
	.st3{fill:#522D88;stroke:#522D88;stroke-miterlimit:10;}
	.st4{fill:none;stroke:#522D88;stroke-width:2;stroke-miterlimit:10;}
</style>
<path class="st0" d="M-206.1-68.6c-0.4-0.1-0.3-0.3,0-0.4C-206.1-68.9-206.1-68.7-206.1-68.6z"/>
<path class="st1" d="M-1092.1,336.9c0.3-0.1,0.5,0,0.7,0.3C-1091.8,337.3-1092,337.2-1092.1,336.9z"/>
<path class="st1" d="M-1091,281.5c0.1,0.1,0.2,0.2,0.2,0.3c0,0.2-0.1,0.3-0.2,0.4c-0.1-0.1-0.2-0.2-0.2-0.3
	C-1091.1,281.8-1091,281.6-1091,281.5z"/>
<path class="st1" d="M-1089.2,282.4c0,0.2,0,0.4,0,0.7C-1089.6,282.8-1089.6,282.6-1089.2,282.4z"/>
<g>
	<g>
		<path class="st2" d="M239.8,40.6H193c-1.9,0-3.4,0.6-4.8,1.9s-2,2.7-2,4.4c0,1.8,0.6,3.2,1.9,4.5c1.3,1.2,2.9,1.8,4.8,1.8h26.8
			c2.4,0,4.7,0.4,6.9,1.2c2.2,0.8,4.2,1.9,5.9,3.2c1.8,1.4,3.2,3,4.5,4.9c1.2,1.9,2,3.9,2.4,6c0.1,0.4,0.2,0.9,0.2,1.4
			c0,0.5,0,1,0,1.4c0,2.5-0.5,4.8-1.6,7c-1.1,2.2-2.5,4.1-4.3,5.8s-3.9,3-6.3,3.9c-2.4,1-5,1.4-7.8,1.4h-46.7V77.4h46.8
			c1.9,0,3.4-0.6,4.8-1.8c1.3-1.2,2-2.7,2-4.4c0-1.7-0.7-3.1-2-4.3c-1.3-1.2-2.9-1.8-4.8-1.8h-26.8c-2.7,0-5.3-0.5-7.7-1.4
			c-2.4-1-4.5-2.3-6.4-3.9c-1.8-1.7-3.3-3.6-4.3-5.8c-1.1-2.2-1.6-4.6-1.6-7.1c0-2.5,0.5-4.8,1.6-7c1.1-2.2,2.5-4.1,4.3-5.8
			c1.8-1.7,3.9-3,6.3-3.9c2.4-1,5-1.4,7.7-1.4h46.8V40.6z"/>
		<path class="st2" d="M308.4,59.7c1.5,1.7,2.6,3.5,3.4,5.5c0.8,2,1.2,4,1.2,6c0,2.5-0.5,4.8-1.6,7c-1.1,2.2-2.5,4.1-4.3,5.8
			c-1.8,1.7-3.9,3-6.3,3.9c-2.4,1-5,1.4-7.8,1.4h-46.6V28.6h46.6c2.8,0,5.4,0.5,7.8,1.4c2.4,1,4.5,2.3,6.3,3.9
			c1.8,1.7,3.3,3.6,4.3,5.8c1.1,2.2,1.6,4.5,1.6,7c0,2-0.4,4-1.2,6c-0.8,2-1.9,3.7-3.4,5.4V59.7z M299.8,46.8c0-1.7-0.7-3.2-2-4.4
			c-1.3-1.2-2.9-1.9-4.8-1.9h-33.5v12.6H293c1.9,0,3.5-0.6,4.8-1.8C299.1,50.1,299.8,48.6,299.8,46.8z M299.8,71.2
			c0-1.7-0.6-3.2-1.9-4.4c-1.3-1.2-2.9-1.8-4.8-1.8h-33.5v12.4H293c1.9,0,3.5-0.6,4.8-1.8C299.1,74.4,299.8,72.9,299.8,71.2z"/>
		<path class="st2" d="M385.7,40.6h-46.8c-1.9,0-3.4,0.6-4.8,1.9s-2,2.7-2,4.4c0,1.8,0.6,3.2,1.9,4.5c1.3,1.2,2.9,1.8,4.8,1.8h26.8
			c2.4,0,4.7,0.4,6.9,1.2c2.2,0.8,4.2,1.9,5.9,3.2c1.8,1.4,3.2,3,4.5,4.9c1.2,1.9,2,3.9,2.4,6c0.1,0.4,0.2,0.9,0.2,1.4
			c0,0.5,0,1,0,1.4c0,2.5-0.5,4.8-1.6,7c-1.1,2.2-2.5,4.1-4.3,5.8s-3.9,3-6.3,3.9c-2.4,1-5,1.4-7.8,1.4h-46.7V77.4h46.8
			c1.9,0,3.4-0.6,4.8-1.8c1.3-1.2,2-2.7,2-4.4c0-1.7-0.7-3.1-2-4.3c-1.3-1.2-2.9-1.8-4.8-1.8h-26.8c-2.7,0-5.3-0.5-7.7-1.4
			c-2.4-1-4.5-2.3-6.4-3.9c-1.8-1.7-3.3-3.6-4.3-5.8c-1.1-2.2-1.6-4.6-1.6-7.1c0-2.5,0.5-4.8,1.6-7c1.1-2.2,2.5-4.1,4.3-5.8
			c1.8-1.7,3.9-3,6.3-3.9c2.4-1,5-1.4,7.7-1.4h46.8V40.6z"/>
	</g>
	<g>
		<path class="st3" d="M183.8,107.9c0-0.8-0.4-1.4-1.2-1.8s-2.1-0.9-4-1.4c-1.9-0.5-3.3-0.9-4.2-1.4s-1.3-1.3-1.3-2.3
			c0-1,0.5-1.8,1.6-2.4c1-0.6,2.4-0.9,4-0.9c1.7,0,3,0.3,4,1c1,0.7,1.5,1.6,1.5,2.8l0,0.1h-0.5c0-1-0.5-1.8-1.4-2.4
			c-0.9-0.6-2.1-1-3.6-1c-1.5,0-2.7,0.3-3.6,0.8c-0.9,0.6-1.3,1.2-1.3,2c0,0.8,0.4,1.4,1.1,1.9s2.1,0.9,4,1.4c1.9,0.5,3.3,1,4.2,1.5
			c0.9,0.5,1.4,1.3,1.4,2.2c0,1-0.5,1.8-1.6,2.4c-1.1,0.6-2.4,0.9-4.1,0.9c-1.7,0-3.1-0.3-4.3-0.9s-1.8-1.6-1.8-2.9l0-0.1h0.5
			c0,1.2,0.6,2.1,1.7,2.6s2.4,0.8,3.9,0.8s2.7-0.3,3.6-0.8S183.8,108.7,183.8,107.9z"/>
		<path class="st3" d="M196.6,109.2c-0.4,0.6-1.1,1.1-1.9,1.4s-1.9,0.6-3.1,0.6c-1.2,0-2.1-0.2-2.7-0.7s-1-1.2-1-2
			c0-0.8,0.5-1.5,1.5-2.1c1-0.6,2.2-0.8,3.7-0.8h3.6v-1.4c0-0.8-0.3-1.5-1-1.9c-0.7-0.5-1.6-0.7-2.8-0.7c-1.1,0-2,0.2-2.7,0.6
			c-0.7,0.4-1,1-1,1.7l-0.5,0l0,0c0-0.8,0.3-1.4,1.1-1.9s1.9-0.8,3.2-0.8c1.3,0,2.4,0.3,3.2,0.8s1.2,1.3,1.2,2.3v4.9
			c0,0.3,0,0.7,0.1,1c0,0.3,0.1,0.7,0.2,1h-0.7c-0.1-0.4-0.2-0.8-0.2-1c0-0.2-0.1-0.4-0.1-0.7V109.2z M191.6,110.7
			c1.2,0,2.3-0.2,3.1-0.6c0.9-0.4,1.5-1,1.9-1.8V106h-3.5c-1.3,0-2.4,0.2-3.3,0.7c-0.9,0.5-1.3,1-1.3,1.7c0,0.7,0.3,1.2,0.8,1.6
			C189.9,110.5,190.7,110.7,191.6,110.7z"/>
		<path class="st3" d="M203,101.2l0.1,2c0.4-0.7,0.9-1.2,1.7-1.6s1.6-0.6,2.7-0.6c1.4,0,2.4,0.3,3.1,1c0.7,0.7,1,1.7,1,3.2v5.8h-0.6
			v-5.8c0-1.4-0.3-2.3-0.9-2.9c-0.6-0.6-1.5-0.8-2.5-0.8c-1.3,0-2.3,0.3-3,0.9c-0.7,0.6-1.1,1.4-1.3,2.3v6.3h-0.6v-5h0
			c0-0.1,0-0.2,0-0.3s0-0.2,0-0.4v-4.1H203z"/>
		<path class="st3" d="M224.3,109.2c-0.4,0.6-1.1,1.1-1.9,1.4s-1.9,0.6-3.1,0.6c-1.2,0-2.1-0.2-2.7-0.7s-1-1.2-1-2
			c0-0.8,0.5-1.5,1.5-2.1c1-0.6,2.2-0.8,3.7-0.8h3.6v-1.4c0-0.8-0.3-1.5-1-1.9c-0.7-0.5-1.6-0.7-2.8-0.7c-1.1,0-2,0.2-2.7,0.6
			c-0.7,0.4-1,1-1,1.7l-0.5,0l0,0c0-0.8,0.3-1.4,1.1-1.9s1.9-0.8,3.2-0.8c1.3,0,2.4,0.3,3.2,0.8s1.2,1.3,1.2,2.3v4.9
			c0,0.3,0,0.7,0.1,1c0,0.3,0.1,0.7,0.2,1h-0.7c-0.1-0.4-0.2-0.8-0.2-1c0-0.2-0.1-0.4-0.1-0.7V109.2z M219.3,110.7
			c1.2,0,2.3-0.2,3.1-0.6c0.9-0.4,1.5-1,1.9-1.8V106h-3.5c-1.3,0-2.4,0.2-3.3,0.7c-0.9,0.5-1.3,1-1.3,1.7c0,0.7,0.3,1.2,0.8,1.6
			C217.6,110.5,218.4,110.7,219.3,110.7z"/>
		<path class="st3" d="M237.2,111V97.8h4.4c1.7,0,3.1,0.3,4,0.8s1.4,1.4,1.4,2.5c0,0.7-0.2,1.4-0.7,1.9c-0.5,0.5-1.1,0.9-1.9,1
			l0,0.1c1,0.1,1.8,0.5,2.5,1.1c0.7,0.6,1,1.3,1,2.1c0,1.2-0.5,2-1.4,2.7c-0.9,0.6-2.2,1-3.8,1H237.2z M237.9,104h4.2
			c1.4,0,2.5-0.3,3.3-0.7c0.7-0.5,1.1-1.2,1.1-2.1c0-0.9-0.4-1.7-1.2-2.1s-2-0.7-3.6-0.7h-3.8V104z M237.9,104.5v6h5
			c1.4,0,2.5-0.3,3.3-0.8c0.8-0.5,1.2-1.3,1.2-2.3c0-0.9-0.4-1.6-1.2-2.1c-0.8-0.5-1.9-0.8-3.3-0.8H237.9z"/>
		<path class="st3" d="M260,109.2c-0.4,0.6-1.1,1.1-1.9,1.4s-1.9,0.6-3.1,0.6c-1.2,0-2.1-0.2-2.7-0.7s-1-1.2-1-2
			c0-0.8,0.5-1.5,1.5-2.1c1-0.6,2.2-0.8,3.7-0.8h3.6v-1.4c0-0.8-0.3-1.5-1-1.9c-0.7-0.5-1.6-0.7-2.8-0.7c-1.1,0-2,0.2-2.7,0.6
			c-0.7,0.4-1,1-1,1.7l-0.5,0l0,0c0-0.8,0.3-1.4,1.1-1.9s1.9-0.8,3.2-0.8c1.3,0,2.4,0.3,3.2,0.8s1.2,1.3,1.2,2.3v4.9
			c0,0.3,0,0.7,0.1,1c0,0.3,0.1,0.7,0.2,1h-0.7c-0.1-0.4-0.2-0.8-0.2-1c0-0.2-0.1-0.4-0.1-0.7V109.2z M255,110.7
			c1.2,0,2.3-0.2,3.1-0.6c0.9-0.4,1.5-1,1.9-1.8V106h-3.5c-1.3,0-2.4,0.2-3.3,0.7c-0.9,0.5-1.3,1-1.3,1.7c0,0.7,0.3,1.2,0.8,1.6
			C253.3,110.5,254.1,110.7,255,110.7z"/>
		<path class="st3" d="M266.4,101.2l0.1,2c0.4-0.7,0.9-1.2,1.7-1.6s1.6-0.6,2.7-0.6c1.4,0,2.4,0.3,3.1,1c0.7,0.7,1,1.7,1,3.2v5.8
			h-0.6v-5.8c0-1.4-0.3-2.3-0.9-2.9c-0.6-0.6-1.5-0.8-2.5-0.8c-1.3,0-2.3,0.3-3,0.9c-0.7,0.6-1.1,1.4-1.3,2.3v6.3h-0.6v-5h0
			c0-0.1,0-0.2,0-0.3s0-0.2,0-0.4v-4.1H266.4z"/>
		<path class="st3" d="M279.3,106.1c0-1.6,0.4-2.8,1.2-3.7c0.8-0.9,2-1.4,3.4-1.4c1,0,1.8,0.2,2.5,0.5c0.7,0.3,1.3,0.8,1.7,1.4
			l0.1-1.8h0.5v3c0,0,0,0,0,0s0,0,0,0v4c0,0,0,0,0,0s0,0,0,0v2.8c0,1.2-0.4,2.2-1.2,2.9c-0.8,0.7-2,1-3.5,1c-0.6,0-1.2,0-1.9-0.1
			s-1.2-0.2-1.7-0.4l0.2-0.5c0.6,0.2,1.1,0.3,1.6,0.4c0.5,0.1,1.1,0.1,1.8,0.1c1.3,0,2.4-0.3,3.1-0.9c0.7-0.6,1-1.4,1-2.5v-1.6
			c-0.4,0.5-1,0.9-1.7,1.2c-0.7,0.3-1.6,0.5-2.5,0.5c-1.5,0-2.6-0.4-3.4-1.3c-0.8-0.9-1.2-2.1-1.2-3.6V106.1z M280,106.3
			c0,1.4,0.3,2.4,1,3.2c0.7,0.8,1.7,1.2,3,1.2c1.1,0,2-0.2,2.7-0.6s1.2-0.9,1.6-1.5v-4.7c-0.3-0.7-0.8-1.3-1.5-1.7s-1.6-0.7-2.8-0.7
			c-1.3,0-2.3,0.4-3,1.3c-0.7,0.8-1,2-1,3.3V106.3z"/>
		<path class="st3" d="M294.7,111h-0.6V96.9h0.6V111z"/>
		<path class="st3" d="M304.4,111.2c-1.5,0-2.7-0.4-3.7-1.3c-1-0.9-1.5-2-1.5-3.4v-0.6c0-1.4,0.5-2.6,1.5-3.5c1-0.9,2.3-1.4,3.8-1.4
			c1.4,0,2.5,0.4,3.3,1.1s1.2,1.7,1.2,2.9v0.8h-9.2v0.1v0.6c0,1.2,0.4,2.2,1.3,3s2,1.2,3.3,1.2c0.7,0,1.5-0.1,2.1-0.3
			s1.2-0.5,1.7-0.9l0.3,0.4c-0.4,0.4-1,0.7-1.7,0.9S305.3,111.2,304.4,111.2z M304.4,101.5c-1.3,0-2.3,0.4-3.2,1.1
			c-0.8,0.7-1.3,1.6-1.4,2.7l0,0.1h8.4V105c0-1-0.3-1.8-1-2.5S305.6,101.5,304.4,101.5z"/>
		<path class="st3" d="M320.7,108.6c0-0.5-0.3-1-0.8-1.4c-0.6-0.4-1.5-0.8-2.9-1c-1.5-0.2-2.6-0.6-3.2-1c-0.7-0.4-1-1-1-1.7
			c0-0.7,0.4-1.3,1.1-1.8c0.8-0.5,1.8-0.7,3-0.7c1.4,0,2.5,0.3,3.2,0.8c0.8,0.5,1.2,1.2,1.1,2l0,0.1h-0.5c0-0.6-0.3-1.2-1-1.6
			c-0.7-0.5-1.6-0.7-2.8-0.7c-1.2,0-2,0.2-2.6,0.6c-0.6,0.4-0.9,0.9-0.9,1.4c0,0.5,0.3,1,0.8,1.3c0.5,0.4,1.5,0.7,3,1
			c1.4,0.3,2.4,0.6,3.2,1s1.1,1.1,1.1,1.8c0,0.8-0.4,1.4-1.2,1.9c-0.8,0.5-1.9,0.7-3.2,0.7c-1.4,0-2.6-0.3-3.4-0.8
			c-0.8-0.5-1.2-1.1-1.2-1.9l0-0.1h0.5c0.1,0.8,0.5,1.3,1.3,1.7s1.7,0.5,2.8,0.5c1.1,0,2.1-0.2,2.7-0.6
			C320.4,109.6,320.7,109.2,320.7,108.6z"/>
		<path class="st3" d="M343,107.9c0-0.8-0.4-1.4-1.2-1.8s-2.1-0.9-4-1.4c-1.9-0.5-3.3-0.9-4.2-1.4s-1.3-1.3-1.3-2.3
			c0-1,0.5-1.8,1.6-2.4c1-0.6,2.4-0.9,4-0.9c1.7,0,3,0.3,4,1c1,0.7,1.5,1.6,1.5,2.8l0,0.1h-0.5c0-1-0.5-1.8-1.4-2.4
			c-0.9-0.6-2.1-1-3.6-1c-1.5,0-2.7,0.3-3.6,0.8c-0.9,0.6-1.3,1.2-1.3,2c0,0.8,0.4,1.4,1.1,1.9s2.1,0.9,4,1.4c1.9,0.5,3.3,1,4.2,1.5
			c0.9,0.5,1.4,1.3,1.4,2.2c0,1-0.5,1.8-1.6,2.4c-1.1,0.6-2.4,0.9-4.1,0.9c-1.7,0-3.1-0.3-4.3-0.9s-1.8-1.6-1.8-2.9l0-0.1h0.5
			c0,1.2,0.6,2.1,1.7,2.6s2.4,0.8,3.9,0.8s2.7-0.3,3.6-0.8S343,108.7,343,107.9z"/>
		<path class="st3" d="M349.3,98.5v2.6h3.1v0.5h-3.1v6.8c0,0.8,0.2,1.4,0.5,1.7s0.8,0.5,1.4,0.5c0.2,0,0.4,0,0.6,0s0.4,0,0.7-0.1
			l0.1,0.4c-0.2,0-0.4,0.1-0.6,0.1c-0.2,0-0.4,0-0.7,0c-0.8,0-1.5-0.2-1.9-0.6c-0.4-0.4-0.6-1.1-0.6-2.1v-6.8h-2.3v-0.5h2.3v-2.6
			H349.3z"/>
		<path class="st3" d="M355.5,105.9c0-1.4,0.5-2.6,1.5-3.5s2.3-1.4,3.9-1.4c1.6,0,2.9,0.5,3.9,1.4c1,0.9,1.5,2.1,1.5,3.5v0.4
			c0,1.4-0.5,2.6-1.5,3.5c-1,0.9-2.3,1.4-3.9,1.4c-1.6,0-2.9-0.5-3.9-1.4c-1-0.9-1.5-2.1-1.5-3.5V105.9z M356.2,106.3
			c0,1.2,0.4,2.3,1.3,3.1s2,1.3,3.5,1.3c1.5,0,2.6-0.4,3.5-1.3c0.9-0.9,1.3-1.9,1.3-3.1v-0.4c0-1.2-0.4-2.2-1.3-3.1
			c-0.9-0.9-2-1.3-3.5-1.3c-1.5,0-2.6,0.4-3.5,1.3s-1.3,1.9-1.3,3.1V106.3z"/>
		<path class="st3" d="M376.1,101.5l-0.8-0.1c-1.1,0-2,0.3-2.7,0.8c-0.7,0.6-1.1,1.3-1.4,2.2v6.4h-0.6v-9.8h0.5l0.1,1.7v0.3
			c0.3-0.7,0.9-1.2,1.5-1.6c0.7-0.4,1.5-0.6,2.5-0.6c0.2,0,0.3,0,0.5,0s0.3,0,0.4,0.1L376.1,101.5z"/>
		<path class="st3" d="M383.8,111.2c-1.5,0-2.7-0.4-3.7-1.3c-1-0.9-1.5-2-1.5-3.4v-0.6c0-1.4,0.5-2.6,1.5-3.5c1-0.9,2.3-1.4,3.8-1.4
			c1.4,0,2.5,0.4,3.3,1.1s1.2,1.7,1.2,2.9v0.8h-9.2v0.1v0.6c0,1.2,0.4,2.2,1.3,3s2,1.2,3.3,1.2c0.7,0,1.5-0.1,2.1-0.3
			s1.2-0.5,1.7-0.9l0.3,0.4c-0.4,0.4-1,0.7-1.7,0.9S384.7,111.2,383.8,111.2z M383.8,101.5c-1.3,0-2.3,0.4-3.2,1.1
			c-0.8,0.7-1.3,1.6-1.4,2.7l0,0.1h8.4V105c0-1-0.3-1.8-1-2.5S385,101.5,383.8,101.5z"/>
	</g>
	<g>
		<g>
			<path class="st2" d="M153.5,32.8c0.6,3.2,1.1,6.5,1.5,9.7l0,9.7v19.4v19.4v9.7c-0.5,3.2-0.9,6.5-1.5,9.7c-0.6-3.2-1-6.5-1.5-9.7
				v-9.7V71.5V52.1l0-9.7C152.4,39.2,152.8,36,153.5,32.8z"/>
		</g>
		<g>
			<path class="st2" d="M403.8,30.4c0.6,3.2,1.1,6.5,1.5,9.7l0,9.7v19.4v19.4v9.7c-0.5,3.2-0.9,6.5-1.5,9.7c-0.6-3.2-1-6.5-1.5-9.7
				v-9.7V69.2V49.8l0-9.7C402.7,36.9,403.1,33.7,403.8,30.4z"/>
		</g>
	</g>
	<g>
		<path class="st3" d="M26.2,38.5c0.3-1,0.8-1.8,1.8-2.3c0.6,0.5,0.9,1.2,1.5,1.6c3.2,2.3,6,5.1,9.1,7.5c0.8,0.7,1.5,2.1,3.1,1.5
			c0.5,2.4,1.3,4.6,2.8,6.6c1.4,1.8,2.6,3.8,4.4,5.2c0.2,1,0.6,0.5,1,0.2c2.2-1.9,4.2-3.9,6.6-5.5c4.1-2.9,8.1-6,12.5-8.7
			c6.3-3.8,12.8-7.4,19.9-9.6c4.7-1.5,9.5-2.6,14.3-0.3c1.6,1.9,2.3,4.1,1.8,6.6c-0.9,4.4-3,8.2-5.5,11.8c-2.3,3.3-4.8,6.3-7.4,9.3
			c-0.2,0.3-0.4,0.7-0.9,0.5c0.2-0.5,0.2-0.9-0.5-0.9c-0.7-0.1-1.4,0-1.9,0.4c-2.3,1.8-5.1,1.4-7.7,2.1c-1.7,0.4-3.2,0.6-4.6,1.9
			c-1.7,1.6-3.6,3.1-5.5,4.5c-4.5,3.3-9,6.7-14,9.3c-3.5,1.8-7.1,3.6-11.1,4.5c-1.6,0.3-3.1,0.2-4.6,0.4c-0.4,0-0.8,0-0.8-0.5
			c0.3-0.4,0.7-0.3,1-0.3c2.4,0.5,4.6-0.6,6.8-1.2c2.2-0.6,4.2-1.7,6.2-2.6c0.9-0.4,2-0.8,2.5-1.9c0.3-0.1,0.6,0.2,0.8,0
			c0.2-0.4-0.3-0.5-0.5-0.7c-4.3-3.2-8.5-6.5-12.5-10.1c-0.2-0.2-0.4-0.6-0.8-0.3c0.2,0.3,0.3,0.7,0.5,1c-0.7,0.5-1.3,1.2-1.8,2
			c-1.1,1.6-2.3,3.2-3.4,4.9c0-0.8-1.3-0.2-1.1-0.8c0.5-1.2-0.5-0.8-0.7-0.7c-1.1,0.6-2.4,1.2-3.2,2.1c-2,2.2-3.7,4.6-5.1,7.1
			c-0.8,1.4-1.2,3-2.2,4.3c0.1-2.1,1.1-3.9,2-5.6c3.1-5.6,7.1-10.5,11.5-15c0.4-0.4,0.8-0.8,0.6-1.5c0.3-0.1,0.5,0.5,0.9,0
			c-2.4-2.6-4.8-5.2-7.2-7.9c-2.6-3-4.9-6.2-6.7-9.7C26.8,44.7,25.9,41.7,26.2,38.5z M89.1,44.8c-0.1,0-0.3,0-0.4-0.1
			c-1.4-2.2-3.4-2.1-5.6-1.8c-4.6,0.6-8.7,2.5-12.8,4.5c-0.5,0.2-1,0.5-1.2,1.1c-1,0.1-1.7,0.7-2.6,1.3c2.6,1.6,5.1,3.2,7.4,4.9
			c1.9,1.4,3.9,2.8,5.6,4.5c-0.5,0.3-1,0.2-1.4-0.3c-0.6-0.6-1.1-1.1-1.8-1.6c-3.3-2.2-6.3-4.6-9.7-6.6c-0.7-0.4-1.3-0.5-1.9,0
			c-0.9,0.7-2,1.2-2.9,1.9c-3.4,2.5-6.9,4.9-9.9,7.8c-0.7,0.7-0.5,1.1,0,1.6c4.1,3.9,8.4,7.5,13.1,10.6c0.6,0.4,1,0.5,1.6,0
			c4.3-3.2,8.5-6.6,12.2-10.4c0.7-0.8,1.8-1.4,0.7-2.7c0,0,0.1-0.2,0.1-0.4c0.1,0.1,0.3,0.1,0.4,0.2c1.4,1.3,1.4,1.3,2.7-0.1
			c1-1.1,2-2.3,2.8-3.5C87.8,52.5,90.2,49.2,89.1,44.8z"/>
		<path class="st3" d="M40.5,84.3c0,0.6,0.4,0.6,0.8,0.5c1.5-0.2,3-0.1,4.6-0.4c4-0.8,7.5-2.7,11.1-4.5c5-2.5,9.5-5.9,14-9.3
			c1.9-1.4,3.8-2.9,5.5-4.5c1.4-1.3,2.9-1.5,4.6-1.9c2.6-0.7,5.4-0.3,7.7-2.1c0.5-0.4,1.2-0.4,1.9-0.4c0.7,0.1,0.7,0.4,0.5,0.9
			c0,0-0.1,0.1-0.1,0.1c-0.3,0.1-0.6,0.3-0.6,0.7c-0.7,0.7-0.4,1.1,0.2,1.7c4.3,4,8.3,8.3,11.6,13.3c2.1,3.2,4.2,6.5,4.8,10.5
			c0.3,2.1-0.1,4-1.8,5.5c-0.2,0-0.3,0-0.2,0.2c0,0,0,0,0,0c-0.2-0.1-0.3,0-0.3,0.2c0,0,0,0,0,0c-0.2-0.1-0.3,0-0.3,0.2c0,0,0,0,0,0
			c-0.7,0-1.4,0.2-2.1-0.4c-2-1.7-4-3.4-6-5.1c-1.9-1.6-3.6-3.5-5.8-4.7c-1.4-0.8-1.4-1-0.4-2c3.7-0.2,5.3-2.4,4.1-6.2
			c-1.2-3.7-3.6-6.7-6-9.6c-0.3-0.4-0.8-0.7-1.2-0.1c-1.1,1.4-2.5,2.5-3.8,3.7c-2.6,2.5-5.6,4.7-8.4,7c-2.2,1.9-4.6,3.6-7.1,5.2
			c-0.8,0.5-0.4,0.8,0.2,1.2c5.3,3.2,10.7,6.1,16.5,8.3c2.6,1,5.2,2.3,8,2.8c0.3,0,0.7,0.1,0.5,0.6c-0.2-0.1-0.5-0.1-0.7-0.2
			c-0.2-0.4-0.6-0.4-0.9-0.2c-1.7-0.1-3.1-0.8-4.7-1.4c-6.8-2.4-13.1-5.7-19.2-9.4c-0.9-0.5-1.4-0.3-2.1,0.2
			c-7.2,4.7-14.6,8.9-22.8,11.5c-3.6,1.1-7.2,2.1-11.1,1.4c-2.8-0.5-4.4-2-5-4.8c0.1-0.7,0.1-1.4,0-2.1c0.1-0.6,0.2-1.2,0.3-1.8
			c0.2-0.2,0.3-0.4,0.2-0.7c0.1-0.4,0.2-0.8,0.4-1.3c1-1.3,1.4-2.9,2.2-4.3c1.4-2.6,3.1-5,5.1-7.1c0.8-0.9,2.1-1.5,3.2-2.1
			c0.2-0.1,1.2-0.5,0.7,0.7c-0.2,0.5,1.1-0.1,1.1,0.8c-1.2,1.5-1.5,3.3-1.7,5.1c-0.2,1.7,0.4,3.1,2.1,3.9c0.1,0.2,0.2,0.3,0.5,0.2
			C40.3,84.3,40.4,84.3,40.5,84.3z"/>
		<path class="st3" d="M92.6,96.1c0.2-0.5-0.3-0.5-0.5-0.6c-2.8-0.5-5.3-1.8-8-2.8c-5.8-2.2-11.2-5.1-16.5-8.3
			c-0.6-0.3-1-0.6-0.2-1.2c2.5-1.6,4.9-3.3,7.1-5.2c0.6,0.8,1.4,1.2,2.3,1.5c4.2,1.8,8.4,3.6,13,3.6c-1,0.9-1,1.2,0.4,2
			c2.2,1.2,3.9,3.1,5.8,4.7c2,1.7,4,3.4,6,5.1c0.7,0.6,1.4,0.4,2.1,0.4c-1.1,1.5-2.7,1.5-4.3,1.6C97.5,97,95,97.2,92.6,96.1z"/>
		<path class="st3" d="M103.1,34.8c-4.8-2.3-9.6-1.1-14.3,0.3c-7.1,2.2-13.5,5.8-19.9,9.6c-4.3,2.6-8.3,5.7-12.5,8.7
			c-2.3,1.6-4.4,3.7-6.6,5.5c-0.4,0.3-0.8,0.9-1-0.2c1.5-1.3,3.1-2.6,4.6-3.9c2.5-2,4.9-4,7.6-5.8c1.2-0.9,1.2-1-0.1-1.9
			c-0.6-0.4-1.2-0.5-1.8-0.8c-3.5-1.7-7.1-2.9-11-3.3c-1.5-0.2-2.9-0.2-4.3,0.3c-1.3,0.4-2.2,1.2-2.2,2.7c-0.2,0.2-0.3,0.3,0,0.5
			c0,0.1,0,0.3,0,0.4c-1.5,0.6-2.2-0.8-3.1-1.5c-3.1-2.5-5.9-5.2-9.1-7.5c-0.6-0.5-1-1.1-1.5-1.6c1.6-1.7,3.8-1.9,5.9-2
			c4.6,0,8.9,1.3,13.2,2.8c5.9,2.2,11.6,5,17,8.2c1,0.6,1.7,0.5,2.6-0.1c7.7-5,15.7-9.4,24.6-11.7c2.8-0.7,5.6-1.2,8.5-0.5
			C101.1,33.3,102.2,33.8,103.1,34.8z M40.5,45.4c0,0.1-0.1,0.2-0.1,0.3c0,0.1,0.1,0.2,0.1,0.2c0.1-0.1,0.1-0.2,0.1-0.3
			C40.6,45.6,40.5,45.5,40.5,45.4z"/>
		<path class="st3" d="M26.2,38.5c-0.3,3.2,0.6,6.2,2,8.9c1.8,3.5,4.1,6.7,6.7,9.7c2.4,2.7,4.8,5.3,7.2,7.9c-0.4,0.5-0.6-0.1-0.9,0
			c-4.2-4.2-8.3-8.6-11.5-13.7c-1.8-2.8-3.3-5.7-3.9-8.9C25.5,41.1,25.4,39.8,26.2,38.5z"/>
		<path class="st3" d="M90.4,63.6c0.1-0.4,0.3-0.6,0.6-0.7C91.3,63.6,90.9,63.7,90.4,63.6z"/>
		<path class="st3" d="M69.2,48.5c4.4,3,8.7,5.9,12.8,9.3c0.4,0.3,0.8,0.5,1.2,0c3-3.9,5.9-7.8,6-13c1.1,4.4-1.4,7.8-3.6,11.1
			c-0.8,1.2-1.8,2.4-2.8,3.5c-1.3,1.4-1.3,1.4-2.7,0.1c-0.1-0.1-0.2-0.1-0.4-0.2c-0.1,0-0.1-0.1-0.1-0.1c-1.7-1.7-3.6-3.1-5.6-4.5
			c-2.3-1.7-4.8-3.3-7.4-4.9C67.5,49.1,68.2,48.5,69.2,48.5z"/>
		<path class="st3" d="M57.1,78.3c-4.3-3.2-8.5-6.6-12.6-10.1c-0.2-0.3-0.3-0.7-0.5-1c0.4-0.3,0.6,0.1,0.8,0.3
			c4,3.6,8.2,6.9,12.5,10.1c0.2,0.2,0.7,0.3,0.5,0.7C57.7,78.6,57.4,78.3,57.1,78.3z"/>
	</g>
	<circle class="st4" cx="64.3" cy="65.5" r="55"/>
</g>
</svg>
